<?xml version="1.0" encoding="UTF-8" standalone="no"?>
<svg width="1792px" height="1344px" viewBox="0 0 1792 1344" version="1.1" xmlns="http://www.w3.org/2000/svg" xmlns:xlink="http://www.w3.org/1999/xlink">
    <!-- Generator: Sketch 42 (36781) - http://www.bohemiancoding.com/sketch -->
    <title>exchange</title>
    <desc>Created with Sketch.</desc>
    <defs></defs>
    <g id="Page-1" stroke="none" stroke-width="1" fill="none" fill-rule="evenodd">
        <path d="M1792,896 L1792,1088 C1792,1096.66667 1788.83333,1104.16667 1782.5,1110.5 C1776.16667,1116.83333 1768.66667,1120 1760,1120 L384,1120 L384,1312 C384,1320.66667 380.833333,1328.16667 374.5,1334.5 C368.166667,1340.83333 360.666667,1344 352,1344 C344,1344 336,1340.66667 328,1334 L9,1014 C3,1008 0,1000.66667 0,992 C0,982.666667 3,975 9,969 L329,649 C335,643 342.666667,640 352,640 C360.666667,640 368.166667,643.166667 374.5,649.5 C380.833333,655.833333 384,663.333333 384,672 L384,864 L1760,864 C1768.66667,864 1776.16667,867.166667 1782.5,873.5 C1788.83333,879.833333 1792,887.333333 1792,896 Z M1792,352 C1792,361.333333 1789,369 1783,375 L1463,695 C1457,701 1449.33333,704 1440,704 C1431.33333,704 1423.83333,700.833333 1417.5,694.5 C1411.16667,688.166667 1408,680.666667 1408,672 L1408,480 L32,480 C23.3333333,480 15.8333333,476.833333 9.5,470.5 C3.16666667,464.166667 0,456.666667 0,448 L0,256 C0,247.333333 3.16666667,239.833333 9.5,233.5 C15.8333333,227.166667 23.3333333,224 32,224 L1408,224 L1408,32 C1408,22.6666667 1411,15 1417,9 C1423,3 1430.66667,0 1440,0 C1448,0 1456,3.33333333 1464,10 L1783,329 C1789,335 1792,342.666667 1792,352 Z" id="exchange" fill="#000000" fill-rule="nonzero"></path>
    </g>
</svg>