<?xml version="1.0" encoding="UTF-8" standalone="no"?>
<svg width="16px" height="12px" viewBox="0 0 16 12" version="1.1" xmlns="http://www.w3.org/2000/svg" xmlns:xlink="http://www.w3.org/1999/xlink">
    <!-- Generator: Sketch 42 (36781) - http://www.bohemiancoding.com/sketch -->
    <title>exchange</title>
    <desc>Created with Sketch.</desc>
    <defs></defs>
    <g id="Page-1" stroke="none" stroke-width="1" fill="none" fill-rule="evenodd">
        <g id="exchange" fill="#000000">
            <path d="M16,8 L16,9.71428571 C16,9.7916667 15.9717262,9.85863098 15.9151786,9.91517857 C15.858631,9.97172616 15.7916667,10 15.7142857,10 L3.42857143,10 L3.42857143,11.7142857 C3.42857143,11.7916667 3.40029762,11.858631 3.34375,11.9151786 C3.28720238,11.9717262 3.2202381,12 3.14285714,12 C3.07142857,12 3,11.9702381 2.92857143,11.9107143 L0.0803571429,9.05357143 C0.0267857143,9 0,8.93452384 0,8.85714286 C0,8.77380953 0.0267857143,8.70535714 0.0803571429,8.65178571 L2.9375,5.79464286 C2.99107143,5.74107143 3.05952381,5.71428571 3.14285714,5.71428571 C3.2202381,5.71428571 3.28720238,5.74255953 3.34375,5.79910714 C3.40029762,5.85565476 3.42857143,5.92261904 3.42857143,6 L3.42857143,7.71428571 L15.7142857,7.71428571 C15.7916667,7.71428571 15.858631,7.74255953 15.9151786,7.79910714 C15.9717262,7.85565476 16,7.92261904 16,8 Z" id="to-left" fill-rule="nonzero"></path>
            <path d="M16,3.14285714 C16,3.22619047 15.9732143,3.29464286 15.9196429,3.34821429 L13.0625,6.20535714 C13.0089286,6.25892857 12.9404762,6.28571429 12.8571429,6.28571429 C12.7797619,6.28571429 12.7127976,6.25744047 12.65625,6.20089286 C12.5997024,6.14434524 12.5714286,6.07738096 12.5714286,6 L12.5714286,4.28571429 L0.285714286,4.28571429 C0.208333333,4.28571429 0.141369047,4.25744047 0.0848214286,4.20089286 C0.0282738096,4.14434524 0,4.07738096 0,4 L0,2.28571429 C0,2.20833333 0.0282738096,2.14136904 0.0848214286,2.08482143 C0.141369047,2.02827381 0.208333333,2 0.285714286,2 L12.5714286,2 L12.5714286,0.285714286 C12.5714286,0.202380953 12.5982143,0.133928571 12.6517857,0.0803571429 C12.7053571,0.0267857143 12.7738096,0 12.8571429,0 C12.9285714,0 13,0.0297619047 13.0714286,0.0892857143 L15.9196429,2.9375 C15.9732143,2.99107143 16,3.05952381 16,3.14285714 Z" id="to-right"></path>
        </g>
    </g>
</svg>