<?xml version="1.0" encoding="UTF-8" standalone="no"?>
<svg viewBox="0 0 51 69" version="1.1" xmlns="http://www.w3.org/2000/svg" xmlns:xlink="http://www.w3.org/1999/xlink">
    <!-- Generator: Sketch 43.2 (39069) - http://www.bohemiancoding.com/sketch -->
    <title>jira</title>
    <desc>Created with Sketch.</desc>
    <defs></defs>
    <g id="Page-1" stroke="none" stroke-width="1" fill="none" fill-rule="evenodd">
        <g id="jira" fill-rule="nonzero" fill="#003366">
            <path d="M0.011287,17.827215 C0.011287,17.827215 -0.472203,28.074235 14.721808,42.991805 C29.915497,57.909505 31.642338,63.968805 30.813544,68.156205 L41.863588,68.156205 C41.863588,68.156205 42.867933,50.844905 25.740284,38.689705 C25.740284,38.689705 13.949706,28.203405 12.02831,19.877465 C12.02831,19.877465 6.224177,19.874465 2.185863,16.626385 C2.185863,16.626385 0.008065,15.320535 0.011287,17.827215" id="path3962"></path>
            <path d="M23.53034,41.495805 C26.581383,43.661105 29.04747,45.991905 31.056159,48.359705 C32.521445,46.796905 34.161316,45.119605 36.003149,43.311605 C51.196845,28.393935 50.713673,17.827375 50.713673,17.827375 C50.716873,15.320385 48.538769,16.706425 48.538769,16.706425 C44.50046,19.954605 38.69633,20.037385 38.69633,20.037385 C36.775252,28.363325 24.984352,39.009405 24.984352,39.009405 C24.18616,39.576005 23.439827,40.157405 22.718296,40.745605 C23.229165,41.227205 23.53034,41.495805 23.53034,41.495805" id="path3966"></path>
            <path d="M23.38468,57.680605 C21.423988,55.145405 18.808762,52.177705 15.349282,48.642205 C8.29439,58.781305 8.860985,68.800305 8.860985,68.800305 L19.911029,68.800305 C19.420774,66.223405 19.826639,62.963005 23.38468,57.680605" id="path3970"></path>
            <path d="M19.797419,20.805815 L30.745997,20.805815 C30.745997,20.805815 32.176495,20.604495 31.827649,22.498505 C31.331596,25.192015 25.421168,30.650195 25.421168,30.650195 C25.421168,30.650195 21.099717,26.637325 19.1751,22.867975 C19.1751,22.867975 18.397844,20.805815 19.797419,20.805815" id="path3974"></path>
            <path d="M44.56904,9.482975 C44.56904,12.125255 42.426993,14.267305 39.784714,14.267305 C37.14243,14.267305 35.000063,12.125255 35.000063,9.482975 C35.000063,6.840365 37.14243,4.698325 39.784714,4.698325 C42.426993,4.698325 44.56904,6.840365 44.56904,9.482975" id="path3978"></path>
            <path d="M16.391184,9.482975 C16.391184,12.125255 14.249141,14.267305 11.606858,14.267305 C8.964575,14.267305 6.82221,12.125255 6.82221,9.482975 C6.82221,6.840365 8.964575,4.698325 11.606858,4.698325 C14.249141,4.698325 16.391184,6.840365 16.391184,9.482975" id="path3982"></path>
            <path d="M30.756304,5.615455 C30.756304,8.257725 28.614262,10.399775 25.971979,10.399775 C23.329697,10.399775 21.187331,8.257725 21.187331,5.615455 C21.187331,2.972835 23.329697,0.830795 25.971979,0.830795 C28.614262,0.830795 30.756304,2.972835 30.756304,5.615455" id="path3986"></path>
        </g>
    </g>
</svg>